<svg class="backspace" xmlns="http://www.w3.org/2000/svg" xmlns:xlink="http://www.w3.org/1999/xlink" version="1.1" x="0px" y="0px" viewBox="0 0 512 640" enable-background="new 0 0 512 512" xml:space="preserve"><path d="M436,136H184.3c-5.3,0-10.4,2.1-14.1,5.9l-108.3,100c-7.8,7.8-7.8,20.5,0,28.3l108.3,100c3.8,3.8,8.8,5.9,14.1,5.9H436  c11,0,20-9,20-20V156C456,145,447,136,436,136z M370.1,301.9c7.8,7.8,5.3,22.9,0,28.3c-3.9,3.9-18.6,9.7-28.3,0L296,284.3  l-45.9,45.9c-9.2,9.2-21.9,6.4-28.3,0c-7.8-7.8-7.8-20.5,0-28.3l45.9-45.9l-45.9-45.9c-7.8-7.8-7.8-20.5,0-28.3s20.5-7.8,28.3,0  l45.9,45.9l45.9-45.9c7.8-7.8,20.5-7.8,28.3,0c7.8,7.8,7.8,20.5,0,28.3L324.3,256L370.1,301.9z"/><text x="0" y="527" fill="#000000" font-size="5px" font-weight="bold" font-family="'Helvetica Neue', Helvetica, Arial-Unicode, Arial, Sans-serif"></text><text x="0" y="532" fill="#000000" font-size="5px" font-weight="bold" font-family="'Helvetica Neue', Helvetica, Arial-Unicode, Arial, Sans-serif"></text></svg>